<mxfile host="app.diagrams.net" modified="2021-04-02T03:01:04.692Z" agent="5.0 (Windows NT 10.0; Win64; x64) AppleWebKit/537.36 (KHTML, like Gecko) Chrome/89.0.4389.90 Safari/537.36" etag="YMdTyPB2JjzxaMLOjKiI" version="14.5.1" type="github">
  <diagram id="GlGM1XmaT3yFdFr9be5f" name="第 1 页">
    <mxGraphModel dx="1422" dy="762" grid="1" gridSize="10" guides="1" tooltips="1" connect="1" arrows="1" fold="1" page="1" pageScale="1" pageWidth="1169" pageHeight="827" math="0" shadow="0">
      <root>
        <mxCell id="0" />
        <mxCell id="1" parent="0" />
        <mxCell id="ditzlFDcSIKMf4kE5N0I-7" value="" style="rounded=0;whiteSpace=wrap;html=1;fontSize=14;" vertex="1" parent="1">
          <mxGeometry x="50" y="110" width="740" height="304" as="geometry" />
        </mxCell>
        <mxCell id="ditzlFDcSIKMf4kE5N0I-34" style="edgeStyle=orthogonalEdgeStyle;rounded=0;orthogonalLoop=1;jettySize=auto;html=1;entryX=0.5;entryY=0;entryDx=0;entryDy=0;fontSize=13;" edge="1" parent="1" source="ditzlFDcSIKMf4kE5N0I-31" target="ditzlFDcSIKMf4kE5N0I-13">
          <mxGeometry relative="1" as="geometry" />
        </mxCell>
        <mxCell id="ditzlFDcSIKMf4kE5N0I-31" value="" style="rounded=0;whiteSpace=wrap;html=1;dashed=1;fontSize=13;" vertex="1" parent="1">
          <mxGeometry x="300" y="182" width="130" height="55" as="geometry" />
        </mxCell>
        <mxCell id="ditzlFDcSIKMf4kE5N0I-13" value="" style="rounded=0;whiteSpace=wrap;html=1;dashed=1;fontSize=13;" vertex="1" parent="1">
          <mxGeometry x="300" y="290" width="130" height="90" as="geometry" />
        </mxCell>
        <mxCell id="ditzlFDcSIKMf4kE5N0I-22" style="edgeStyle=orthogonalEdgeStyle;rounded=0;orthogonalLoop=1;jettySize=auto;html=1;fontSize=13;" edge="1" parent="1" source="ditzlFDcSIKMf4kE5N0I-8" target="ditzlFDcSIKMf4kE5N0I-9">
          <mxGeometry relative="1" as="geometry">
            <Array as="points">
              <mxPoint x="105" y="210" />
            </Array>
          </mxGeometry>
        </mxCell>
        <mxCell id="ditzlFDcSIKMf4kE5N0I-23" style="edgeStyle=orthogonalEdgeStyle;rounded=0;orthogonalLoop=1;jettySize=auto;html=1;entryX=0;entryY=0.5;entryDx=0;entryDy=0;fontSize=13;" edge="1" parent="1" source="ditzlFDcSIKMf4kE5N0I-8" target="ditzlFDcSIKMf4kE5N0I-10">
          <mxGeometry relative="1" as="geometry">
            <Array as="points">
              <mxPoint x="105" y="335" />
            </Array>
          </mxGeometry>
        </mxCell>
        <mxCell id="ditzlFDcSIKMf4kE5N0I-8" value="数据源" style="shape=cylinder3;whiteSpace=wrap;html=1;boundedLbl=1;backgroundOutline=1;size=15;fontSize=13;" vertex="1" parent="1">
          <mxGeometry x="80" y="240" width="50" height="70" as="geometry" />
        </mxCell>
        <mxCell id="ditzlFDcSIKMf4kE5N0I-35" style="edgeStyle=orthogonalEdgeStyle;rounded=0;orthogonalLoop=1;jettySize=auto;html=1;entryX=0;entryY=0.5;entryDx=0;entryDy=0;fontSize=13;" edge="1" parent="1" source="ditzlFDcSIKMf4kE5N0I-9" target="ditzlFDcSIKMf4kE5N0I-31">
          <mxGeometry relative="1" as="geometry" />
        </mxCell>
        <mxCell id="ditzlFDcSIKMf4kE5N0I-9" value="历史数据" style="rounded=0;whiteSpace=wrap;html=1;horizontal=1;fontSize=13;" vertex="1" parent="1">
          <mxGeometry x="220" y="169.5" width="20" height="80" as="geometry" />
        </mxCell>
        <mxCell id="ditzlFDcSIKMf4kE5N0I-37" style="edgeStyle=orthogonalEdgeStyle;rounded=0;orthogonalLoop=1;jettySize=auto;html=1;exitX=1;exitY=0.5;exitDx=0;exitDy=0;entryX=0;entryY=0.5;entryDx=0;entryDy=0;fontSize=13;" edge="1" parent="1" source="ditzlFDcSIKMf4kE5N0I-10" target="ditzlFDcSIKMf4kE5N0I-13">
          <mxGeometry relative="1" as="geometry" />
        </mxCell>
        <mxCell id="ditzlFDcSIKMf4kE5N0I-10" value="定时更新后的数据" style="rounded=0;whiteSpace=wrap;html=1;fontSize=13;" vertex="1" parent="1">
          <mxGeometry x="220" y="270" width="20" height="130" as="geometry" />
        </mxCell>
        <mxCell id="ditzlFDcSIKMf4kE5N0I-11" value="周期性分析" style="rounded=0;whiteSpace=wrap;html=1;fontSize=13;" vertex="1" parent="1">
          <mxGeometry x="320" y="194.5" width="90" height="30" as="geometry" />
        </mxCell>
        <mxCell id="ditzlFDcSIKMf4kE5N0I-12" value="属性构造" style="rounded=0;whiteSpace=wrap;html=1;fontSize=13;" vertex="1" parent="1">
          <mxGeometry x="320" y="342" width="90" height="30" as="geometry" />
        </mxCell>
        <mxCell id="ditzlFDcSIKMf4kE5N0I-14" value="数据清洗" style="rounded=0;whiteSpace=wrap;html=1;fontSize=13;" vertex="1" parent="1">
          <mxGeometry x="320" y="300" width="90" height="30" as="geometry" />
        </mxCell>
        <mxCell id="ditzlFDcSIKMf4kE5N0I-45" value="" style="edgeStyle=orthogonalEdgeStyle;rounded=0;orthogonalLoop=1;jettySize=auto;html=1;fontSize=13;" edge="1" parent="1" source="ditzlFDcSIKMf4kE5N0I-15" target="ditzlFDcSIKMf4kE5N0I-20">
          <mxGeometry relative="1" as="geometry" />
        </mxCell>
        <mxCell id="ditzlFDcSIKMf4kE5N0I-15" value="时序预测" style="rounded=0;whiteSpace=wrap;html=1;fontSize=13;" vertex="1" parent="1">
          <mxGeometry x="535" y="172" width="90" height="30" as="geometry" />
        </mxCell>
        <mxCell id="ditzlFDcSIKMf4kE5N0I-43" style="edgeStyle=orthogonalEdgeStyle;rounded=0;orthogonalLoop=1;jettySize=auto;html=1;exitX=1;exitY=0.25;exitDx=0;exitDy=0;entryX=0;entryY=0.5;entryDx=0;entryDy=0;fontSize=13;" edge="1" parent="1" source="ditzlFDcSIKMf4kE5N0I-16" target="ditzlFDcSIKMf4kE5N0I-15">
          <mxGeometry relative="1" as="geometry">
            <Array as="points">
              <mxPoint x="510" y="187" />
            </Array>
          </mxGeometry>
        </mxCell>
        <mxCell id="ditzlFDcSIKMf4kE5N0I-16" value="建&lt;br&gt;模&lt;br&gt;数&lt;br&gt;据" style="rounded=0;whiteSpace=wrap;html=1;fontSize=13;" vertex="1" parent="1">
          <mxGeometry x="480" y="162" width="30" height="240" as="geometry" />
        </mxCell>
        <mxCell id="ditzlFDcSIKMf4kE5N0I-49" style="edgeStyle=orthogonalEdgeStyle;rounded=0;orthogonalLoop=1;jettySize=auto;html=1;fontSize=13;" edge="1" parent="1" source="ditzlFDcSIKMf4kE5N0I-17" target="ditzlFDcSIKMf4kE5N0I-18">
          <mxGeometry relative="1" as="geometry" />
        </mxCell>
        <mxCell id="ditzlFDcSIKMf4kE5N0I-17" value="模型评价" style="rounded=0;whiteSpace=wrap;html=1;fontSize=13;" vertex="1" parent="1">
          <mxGeometry x="535" y="300" width="90" height="30" as="geometry" />
        </mxCell>
        <mxCell id="ditzlFDcSIKMf4kE5N0I-50" style="edgeStyle=orthogonalEdgeStyle;rounded=0;orthogonalLoop=1;jettySize=auto;html=1;fontSize=13;" edge="1" parent="1" source="ditzlFDcSIKMf4kE5N0I-18" target="ditzlFDcSIKMf4kE5N0I-19">
          <mxGeometry relative="1" as="geometry" />
        </mxCell>
        <mxCell id="ditzlFDcSIKMf4kE5N0I-18" value="模型应用" style="rounded=0;whiteSpace=wrap;html=1;fontSize=13;" vertex="1" parent="1">
          <mxGeometry x="535" y="360" width="90" height="30" as="geometry" />
        </mxCell>
        <mxCell id="ditzlFDcSIKMf4kE5N0I-51" style="edgeStyle=orthogonalEdgeStyle;rounded=0;orthogonalLoop=1;jettySize=auto;html=1;entryX=1;entryY=0.5;entryDx=0;entryDy=0;fontSize=13;" edge="1" parent="1" source="ditzlFDcSIKMf4kE5N0I-19" target="ditzlFDcSIKMf4kE5N0I-15">
          <mxGeometry relative="1" as="geometry">
            <Array as="points">
              <mxPoint x="680" y="375" />
              <mxPoint x="680" y="187" />
            </Array>
          </mxGeometry>
        </mxCell>
        <mxCell id="ditzlFDcSIKMf4kE5N0I-19" value="应用结果" style="shape=parallelogram;perimeter=parallelogramPerimeter;whiteSpace=wrap;html=1;fixedSize=1;dashed=1;fontSize=13;" vertex="1" parent="1">
          <mxGeometry x="690" y="357.5" width="90" height="35" as="geometry" />
        </mxCell>
        <mxCell id="ditzlFDcSIKMf4kE5N0I-47" style="edgeStyle=orthogonalEdgeStyle;rounded=0;orthogonalLoop=1;jettySize=auto;html=1;fontSize=13;" edge="1" parent="1" source="ditzlFDcSIKMf4kE5N0I-20" target="ditzlFDcSIKMf4kE5N0I-17">
          <mxGeometry relative="1" as="geometry" />
        </mxCell>
        <mxCell id="ditzlFDcSIKMf4kE5N0I-20" value="Model" style="ellipse;shape=cloud;whiteSpace=wrap;html=1;dashed=1;fontSize=13;" vertex="1" parent="1">
          <mxGeometry x="540" y="224.5" width="80" height="50" as="geometry" />
        </mxCell>
        <mxCell id="ditzlFDcSIKMf4kE5N0I-24" value="每天定时抽取" style="text;html=1;strokeColor=none;fillColor=none;align=center;verticalAlign=middle;whiteSpace=wrap;rounded=0;dashed=1;fontSize=13;" vertex="1" parent="1">
          <mxGeometry x="114" y="347" width="50" height="20" as="geometry" />
        </mxCell>
        <mxCell id="ditzlFDcSIKMf4kE5N0I-25" value="选择性抽取" style="text;html=1;strokeColor=none;fillColor=none;align=center;verticalAlign=middle;whiteSpace=wrap;rounded=0;dashed=1;fontSize=13;" vertex="1" parent="1">
          <mxGeometry x="119" y="182" width="50" height="20" as="geometry" />
        </mxCell>
        <mxCell id="ditzlFDcSIKMf4kE5N0I-29" value="" style="endArrow=none;dashed=1;html=1;fontSize=13;exitX=0.145;exitY=1.003;exitDx=0;exitDy=0;exitPerimeter=0;" edge="1" parent="1">
          <mxGeometry width="50" height="50" relative="1" as="geometry">
            <mxPoint x="174.20000000000005" y="414.96000000000004" as="sourcePoint" />
            <mxPoint x="174" y="150" as="targetPoint" />
          </mxGeometry>
        </mxCell>
        <mxCell id="ditzlFDcSIKMf4kE5N0I-38" value="" style="endArrow=none;dashed=1;html=1;fontSize=13;exitX=0.145;exitY=1.003;exitDx=0;exitDy=0;exitPerimeter=0;" edge="1" parent="1">
          <mxGeometry width="50" height="50" relative="1" as="geometry">
            <mxPoint x="270.00000000000006" y="414.96000000000004" as="sourcePoint" />
            <mxPoint x="270" y="150" as="targetPoint" />
          </mxGeometry>
        </mxCell>
        <mxCell id="ditzlFDcSIKMf4kE5N0I-39" value="" style="endArrow=none;dashed=1;html=1;fontSize=13;exitX=0.145;exitY=1.003;exitDx=0;exitDy=0;exitPerimeter=0;" edge="1" parent="1">
          <mxGeometry width="50" height="50" relative="1" as="geometry">
            <mxPoint x="460.00000000000006" y="414.96000000000004" as="sourcePoint" />
            <mxPoint x="460" y="150" as="targetPoint" />
          </mxGeometry>
        </mxCell>
        <mxCell id="ditzlFDcSIKMf4kE5N0I-40" value="" style="endArrow=none;dashed=1;html=1;fontSize=13;exitX=0.145;exitY=1.003;exitDx=0;exitDy=0;exitPerimeter=0;" edge="1" parent="1">
          <mxGeometry width="50" height="50" relative="1" as="geometry">
            <mxPoint x="651" y="413.96000000000004" as="sourcePoint" />
            <mxPoint x="651" y="150" as="targetPoint" />
          </mxGeometry>
        </mxCell>
        <mxCell id="ditzlFDcSIKMf4kE5N0I-41" value="" style="endArrow=classic;html=1;fontSize=13;entryX=0;entryY=0.5;entryDx=0;entryDy=0;" edge="1" parent="1" target="ditzlFDcSIKMf4kE5N0I-16">
          <mxGeometry width="50" height="50" relative="1" as="geometry">
            <mxPoint x="460" y="282" as="sourcePoint" />
            <mxPoint x="610" y="300" as="targetPoint" />
          </mxGeometry>
        </mxCell>
        <mxCell id="ditzlFDcSIKMf4kE5N0I-52" value="模型优化与重构" style="text;html=1;strokeColor=none;fillColor=none;align=center;verticalAlign=middle;whiteSpace=wrap;rounded=0;fontSize=13;labelBackgroundColor=#ffffff;" vertex="1" parent="1">
          <mxGeometry x="651" y="254.5" width="109" height="20" as="geometry" />
        </mxCell>
        <mxCell id="ditzlFDcSIKMf4kE5N0I-53" value="" style="endArrow=none;html=1;fontSize=13;" edge="1" parent="1">
          <mxGeometry width="50" height="50" relative="1" as="geometry">
            <mxPoint x="50" y="150" as="sourcePoint" />
            <mxPoint x="790" y="150" as="targetPoint" />
          </mxGeometry>
        </mxCell>
        <mxCell id="ditzlFDcSIKMf4kE5N0I-56" value="" style="endArrow=none;html=1;fontSize=13;entryX=0.809;entryY=0.003;entryDx=0;entryDy=0;entryPerimeter=0;rounded=0;" edge="1" parent="1">
          <mxGeometry width="50" height="50" relative="1" as="geometry">
            <mxPoint x="650" y="150" as="sourcePoint" />
            <mxPoint x="649.6599999999999" y="110.91200000000003" as="targetPoint" />
            <Array as="points">
              <mxPoint x="671" y="130" />
            </Array>
          </mxGeometry>
        </mxCell>
        <mxCell id="ditzlFDcSIKMf4kE5N0I-57" value="" style="endArrow=none;html=1;fontSize=13;entryX=0.809;entryY=0.003;entryDx=0;entryDy=0;entryPerimeter=0;rounded=0;" edge="1" parent="1">
          <mxGeometry width="50" height="50" relative="1" as="geometry">
            <mxPoint x="460" y="150" as="sourcePoint" />
            <mxPoint x="459.65999999999985" y="110.91200000000003" as="targetPoint" />
            <Array as="points">
              <mxPoint x="481" y="130" />
            </Array>
          </mxGeometry>
        </mxCell>
        <mxCell id="ditzlFDcSIKMf4kE5N0I-58" value="" style="endArrow=none;html=1;fontSize=13;entryX=0.809;entryY=0.003;entryDx=0;entryDy=0;entryPerimeter=0;rounded=0;" edge="1" parent="1">
          <mxGeometry width="50" height="50" relative="1" as="geometry">
            <mxPoint x="270" y="150" as="sourcePoint" />
            <mxPoint x="269.65999999999985" y="110.91200000000003" as="targetPoint" />
            <Array as="points">
              <mxPoint x="291" y="130" />
            </Array>
          </mxGeometry>
        </mxCell>
        <mxCell id="ditzlFDcSIKMf4kE5N0I-59" value="" style="endArrow=none;html=1;fontSize=13;entryX=0.809;entryY=0.003;entryDx=0;entryDy=0;entryPerimeter=0;rounded=0;" edge="1" parent="1">
          <mxGeometry width="50" height="50" relative="1" as="geometry">
            <mxPoint x="175" y="150" as="sourcePoint" />
            <mxPoint x="174.65999999999985" y="110.91200000000003" as="targetPoint" />
            <Array as="points">
              <mxPoint x="196" y="130" />
            </Array>
          </mxGeometry>
        </mxCell>
        <mxCell id="ditzlFDcSIKMf4kE5N0I-60" value="结果&amp;amp;反馈" style="text;html=1;strokeColor=none;fillColor=none;align=center;verticalAlign=middle;whiteSpace=wrap;rounded=0;labelBackgroundColor=#ffffff;fontSize=13;" vertex="1" parent="1">
          <mxGeometry x="691" y="121" width="70" height="20" as="geometry" />
        </mxCell>
        <mxCell id="ditzlFDcSIKMf4kE5N0I-61" value="建模&amp;amp;应用" style="text;html=1;strokeColor=none;fillColor=none;align=center;verticalAlign=middle;whiteSpace=wrap;rounded=0;labelBackgroundColor=#ffffff;fontSize=13;" vertex="1" parent="1">
          <mxGeometry x="520" y="121" width="90" height="20" as="geometry" />
        </mxCell>
        <mxCell id="ditzlFDcSIKMf4kE5N0I-62" value="数据预处理" style="text;html=1;strokeColor=none;fillColor=none;align=center;verticalAlign=middle;whiteSpace=wrap;rounded=0;labelBackgroundColor=#ffffff;fontSize=13;" vertex="1" parent="1">
          <mxGeometry x="330" y="121" width="90" height="20" as="geometry" />
        </mxCell>
        <mxCell id="ditzlFDcSIKMf4kE5N0I-63" value="数据抽取" style="text;html=1;strokeColor=none;fillColor=none;align=center;verticalAlign=middle;whiteSpace=wrap;rounded=0;labelBackgroundColor=#ffffff;fontSize=13;" vertex="1" parent="1">
          <mxGeometry x="192" y="121" width="90" height="20" as="geometry" />
        </mxCell>
        <mxCell id="ditzlFDcSIKMf4kE5N0I-64" value="磁盘系统" style="text;html=1;strokeColor=none;fillColor=none;align=center;verticalAlign=middle;whiteSpace=wrap;rounded=0;labelBackgroundColor=#ffffff;fontSize=13;" vertex="1" parent="1">
          <mxGeometry x="74" y="121" width="90" height="20" as="geometry" />
        </mxCell>
      </root>
    </mxGraphModel>
  </diagram>
</mxfile>
